<svg fill="#000000" xmlns="http://www.w3.org/2000/svg"  viewBox="0 0 128 128" width="64px" height="64px"><path d="M124.5 121.4H44.1c-1.7 0-3 1.3-3 3s1.3 3 3 3h80.4c1.7 0 3-1.3 3-3S126.2 121.4 124.5 121.4zM1.1 124.4c0 1.7 1.3 3 3 3h20c1.7 0 3-1.3 3-3s-1.3-3-3-3h-20C2.5 121.4 1.1 122.8 1.1 124.4zM42.7 102.4l60.8-60.8c0 0 0 0 0 0l9.9-9.9c3.4-3.4 5.3-7.9 5.3-12.7s-1.9-9.3-5.3-12.7C110 2.9 105.5 1 100.7 1S91.4 2.9 88 6.3l-9.8 9.8c0 0 0 0 0 0 0 0-60.9 60.9-60.9 60.9-.5.5-.8 1.1-.8 1.7L13 102.4l-2.7 2.7c-1.1 1.1-1.3 3-.3 4.2.6.7 1.4 1 2.3 1 .8 0 1.5-.3 2.1-.9l2.8-2.8 23.8-3.4C41.7 103.2 42.3 102.9 42.7 102.4zM92.2 10.5c2.3-2.3 5.3-3.5 8.5-3.5s6.2 1.2 8.5 3.5c2.3 2.3 3.5 5.3 3.5 8.5s-1.2 6.2-3.5 8.5l-6.6 6.6c-3.4-7.5-9.4-13.6-16.9-17L92.2 10.5zM81 21.7c10.3 3.6 15.6 10.9 17.1 16.8L42.7 93.9c-3-7.8-9.2-13.9-17-17L81 21.7zM19.4 100.3L22 82c7.5 2.4 13.4 8.2 15.7 15.7L19.4 100.3z"/></svg>