<svg xmlns="http://www.w3.org/2000/svg" xmlns:xlink="http://www.w3.org/1999/xlink" id="fatal_x5F_error" x="0" y="0" enable-background="new 0 0 800 600" version="1.1" viewBox="0 0 800 600" xml:space="preserve"><linearGradient id="SVGID_1_" x1="194" x2="356.788" y1="156" y2="318.788" gradientUnits="userSpaceOnUse"><stop offset="0" style="stop-color:#ffdc2e"/><stop offset=".04" style="stop-color:#ffde39"/><stop offset=".302" style="stop-color:#ffea7f"/><stop offset=".539" style="stop-color:#fff3b6"/><stop offset=".741" style="stop-color:#fff9de"/><stop offset=".902" style="stop-color:#fffdf6"/><stop offset="1" style="stop-color:#fff"/></linearGradient><circle cx="278" cy="240" r="106" fill="url(#SVGID_1_)"/><linearGradient id="SVGID_2_" x1="116" x2="678" y1="492" y2="492" gradientUnits="userSpaceOnUse"><stop offset="0" style="stop-color:#ededed"/><stop offset="1" style="stop-color:#ddd"/></linearGradient><rect width="562" height="8" x="116" y="488" fill="url(#SVGID_2_)"/><linearGradient id="SVGID_3_" x1="434" x2="434" y1="440.667" y2="488.014" gradientUnits="userSpaceOnUse"><stop offset="0" style="stop-color:#303030"/><stop offset=".403" style="stop-color:#393939"/><stop offset="1" style="stop-color:#424242"/></linearGradient><path fill="url(#SVGID_3_)" d="M384,444v2c0,23.196,18.804,42,42,42c0.67,0,15.343,0.094,16,0c23.196,0,42-18.804,42-42v-2H384z"/><linearGradient id="SVGID_4_" x1="420" x2="504" y1="465.041" y2="465.041" gradientUnits="userSpaceOnUse"><stop offset="0" style="stop-color:#424242"/><stop offset=".241" style="stop-color:#464646"/><stop offset="1" style="stop-color:#4f4f4f"/></linearGradient><path fill="url(#SVGID_4_)" d="M504,446c0,22.526-12,38-26,42c-0.638,0.182-15.33,0-16,0c-23.196,0-42-18.804-42-42v-4h84V446z"/><linearGradient id="SVGID_5_" x1="478" x2="478" y1="402" y2="486.38" gradientUnits="userSpaceOnUse"><stop offset="0" style="stop-color:#515151"/><stop offset=".018" style="stop-color:#525252"/><stop offset=".626" style="stop-color:#6a6a6a"/><stop offset="1" style="stop-color:#737373"/></linearGradient><circle cx="478" cy="446" r="42" fill="url(#SVGID_5_)"/><circle cx="478" cy="446" r="18" fill="#AAA"/><linearGradient id="SVGID_6_" x1="281" x2="281" y1="265.5" y2="356.11" gradientUnits="userSpaceOnUse"><stop offset="0" style="stop-color:#ff6954"/><stop offset=".225" style="stop-color:#ff8141"/><stop offset=".488" style="stop-color:#ff9531"/><stop offset=".749" style="stop-color:#ffa227"/><stop offset="1" style="stop-color:#ffa624"/></linearGradient><path fill="url(#SVGID_6_)" d="M287.347,268c-4.509,0-8.639,2.526-10.693,6.54L236,354h44l46-86H287.347z"/><linearGradient id="SVGID_7_" x1="314.266" x2="243.188" y1="280.933" y2="352.011" gradientUnits="userSpaceOnUse"><stop offset="0" style="stop-color:#c4eafc"/><stop offset=".211" style="stop-color:#daf2fd"/><stop offset=".479" style="stop-color:#eef9fe"/><stop offset=".744" style="stop-color:#fbfeff"/><stop offset="1" style="stop-color:#fff"/></linearGradient><path fill="url(#SVGID_7_)" d="M310,280h-24.763c-0.759,0-1.455,0.425-1.802,1.1l-37.411,72.853	c-0.011,0.021,0.005,0.047,0.028,0.047H272L310,280z"/><linearGradient id="SVGID_8_" x1="148.828" x2="268" y1="311" y2="311" gradientUnits="userSpaceOnUse"><stop offset="0" style="stop-color:#ff6b61"/><stop offset=".024" style="stop-color:#fe6d5b"/><stop offset=".156" style="stop-color:#fc7841"/><stop offset=".302" style="stop-color:#fa812d"/><stop offset=".467" style="stop-color:#f8861f"/><stop offset=".667" style="stop-color:#f78a17"/><stop offset="1" style="stop-color:#f78b14"/></linearGradient><path fill="url(#SVGID_8_)" d="M232,354l-82.582-82.582c-1.261-1.261-0.368-3.418,1.416-3.418h30.336	c0.531,0,1.04,0.211,1.416,0.587L268,354H232z"/><linearGradient id="SVGID_9_" x1="162" x2="162" y1="350" y2="428.103" gradientUnits="userSpaceOnUse"><stop offset="0" style="stop-color:#ff6b61"/><stop offset=".024" style="stop-color:#fe6d5b"/><stop offset=".156" style="stop-color:#fc7841"/><stop offset=".302" style="stop-color:#fa812d"/><stop offset=".467" style="stop-color:#f8861f"/><stop offset=".667" style="stop-color:#f78a17"/><stop offset="1" style="stop-color:#f78b14"/></linearGradient><path fill="url(#SVGID_9_)" d="M140,354h56v90h-68v-78C128,359.373,133.373,354,140,354z"/><linearGradient id="SVGID_10_" x1="210" x2="210" y1="440.667" y2="488.014" gradientUnits="userSpaceOnUse"><stop offset="0" style="stop-color:#303030"/><stop offset=".403" style="stop-color:#393939"/><stop offset="1" style="stop-color:#424242"/></linearGradient><path fill="url(#SVGID_10_)" d="M160,444v2c0,23.196,18.804,42,42,42c4.169,0,16,0,16,0c23.196,0,42-18.804,42-42v-2H160z"/><linearGradient id="SVGID_11_" x1="196" x2="280" y1="465" y2="465" gradientUnits="userSpaceOnUse"><stop offset="0" style="stop-color:#424242"/><stop offset=".241" style="stop-color:#464646"/><stop offset="1" style="stop-color:#4f4f4f"/></linearGradient><path fill="url(#SVGID_11_)" d="M196,442v4c0,23.196,18.804,42,42,42h16v-3.173c16-6.294,26-21.299,26-38.827v-4H196z"/><linearGradient id="SVGID_12_" x1="254" x2="254" y1="402" y2="486.38" gradientUnits="userSpaceOnUse"><stop offset="0" style="stop-color:#515151"/><stop offset=".018" style="stop-color:#525252"/><stop offset=".626" style="stop-color:#6a6a6a"/><stop offset="1" style="stop-color:#737373"/></linearGradient><circle cx="254" cy="446" r="42" fill="url(#SVGID_12_)"/><linearGradient id="SVGID_13_" x1="254" x2="254" y1="465.5" y2="427" gradientUnits="userSpaceOnUse"><stop offset="0" style="stop-color:#d1d1d1"/><stop offset=".113" style="stop-color:#cbcbcb"/><stop offset=".662" style="stop-color:#b3b3b3"/><stop offset="1" style="stop-color:#aaa"/></linearGradient><circle cx="254" cy="446" r="18" fill="url(#SVGID_13_)"/><linearGradient id="SVGID_14_" x1="363" x2="363" y1="266.667" y2="442.127" gradientUnits="userSpaceOnUse"><stop offset="0" style="stop-color:#ff6954"/><stop offset=".225" style="stop-color:#ff8141"/><stop offset=".488" style="stop-color:#ff9531"/><stop offset=".749" style="stop-color:#ffa227"/><stop offset="1" style="stop-color:#ffa624"/></linearGradient><path fill="url(#SVGID_14_)" d="M560,362v82h-39.34l-5.261-15.784C513.763,423.309,509.172,420,504,420h-51.995	c-5.174,0-9.768,3.311-11.405,8.22l-4.348,13.044c-0.545,1.634-2.074,2.737-3.797,2.737H298.885c-1.723,0-3.252-1.102-3.797-2.737	l-4.349-13.048c-1.635-4.906-6.227-8.216-11.399-8.216h-50.68c-5.172,0-9.763,3.309-11.399,8.216l-4.337,13.011	c-0.552,1.656-2.102,2.773-3.847,2.773H166v-78c0-6.627,5.373-12,12-12h86.645c4.515,0,8.649-2.529,10.706-6.548l37.304-72.911	c2.054-4.015,6.184-6.54,10.693-6.54h158.122c5.109,0,9.658,3.231,11.341,8.055l24.342,69.782c1.705,4.888,6.316,8.163,11.493,8.163	H552C556.418,354,560,357.582,560,362z"/><linearGradient id="SVGID_15_" x1="478" x2="478" y1="465.5" y2="427" gradientUnits="userSpaceOnUse"><stop offset="0" style="stop-color:#d1d1d1"/><stop offset=".113" style="stop-color:#cbcbcb"/><stop offset=".662" style="stop-color:#b3b3b3"/><stop offset="1" style="stop-color:#aaa"/></linearGradient><circle cx="478" cy="446" r="18" fill="url(#SVGID_15_)"/><rect width="30" height="8" x="580" y="454" fill="#FFDCC0"/><linearGradient id="SVGID_16_" x1="118" x2="178" y1="434" y2="434" gradientUnits="userSpaceOnUse"><stop offset="0" style="stop-color:#f5f5f5"/><stop offset=".317" style="stop-color:#f1f1f1"/><stop offset=".644" style="stop-color:#e4e4e4"/><stop offset=".976" style="stop-color:#d0d0d0"/><stop offset="1" style="stop-color:#cecece"/></linearGradient><path fill="url(#SVGID_16_)" d="M178,428c0-2.209-1.791-4-4-4h-52c-2.209,0-4,1.791-4,4v12c0,2.209,1.791,4,4,4h52	c2.209,0,4-1.791,4-4V428z"/><linearGradient id="SVGID_17_" x1="128" x2="166" y1="398" y2="398" gradientUnits="userSpaceOnUse"><stop offset="0" style="stop-color:#aa734d"/><stop offset=".536" style="stop-color:#a76f49"/><stop offset="1" style="stop-color:#a0663f"/></linearGradient><rect width="38" height="28" x="128" y="384" fill="url(#SVGID_17_)"/><linearGradient id="SVGID_18_" x1="160" x2="160" y1="383.5" y2="413.167" gradientUnits="userSpaceOnUse"><stop offset="0" style="stop-color:#d4836d"/><stop offset="1" style="stop-color:#be7a5c"/></linearGradient><path fill="url(#SVGID_18_)" d="M162,412h4v-28h-4c-4.418,0-8,3.582-8,8v12C154,408.418,157.582,412,162,412z"/><linearGradient id="SVGID_19_" x1="122" x2="122" y1="383.5" y2="413.167" gradientUnits="userSpaceOnUse"><stop offset="0" style="stop-color:#d4836d"/><stop offset="1" style="stop-color:#be7a5c"/></linearGradient><path fill="url(#SVGID_19_)" d="M124,412h4v-28h-4c-4.418,0-8,3.582-8,8v12C116,408.418,119.582,412,124,412z"/><linearGradient id="SVGID_20_" x1="180" x2="196" y1="388" y2="388" gradientUnits="userSpaceOnUse"><stop offset="0" style="stop-color:#302926;stop-opacity:.1"/><stop offset=".178" style="stop-color:#392922;stop-opacity:.1"/><stop offset=".469" style="stop-color:#512a18;stop-opacity:.1"/><stop offset=".834" style="stop-color:#792c08;stop-opacity:.1"/><stop offset="1" style="stop-color:#8d2d00;stop-opacity:.1"/></linearGradient><path fill="url(#SVGID_20_)" d="M196,390c0,1.105-0.895,2-2,2h-12c-1.105,0-2-0.895-2-2v-4c0-1.105,0.895-2,2-2h12	c1.105,0,2,0.895,2,2V390z"/><linearGradient id="SVGID_21_" x1="515" x2="515" y1="232.667" y2="334.334" gradientUnits="userSpaceOnUse"><stop offset="0" style="stop-color:#fce08e"/><stop offset=".273" style="stop-color:#fcdf8a"/><stop offset=".556" style="stop-color:#fddc7d"/><stop offset=".842" style="stop-color:#fed769"/><stop offset="1" style="stop-color:#ffd45a"/></linearGradient><path fill="url(#SVGID_21_)" d="M504,336h22V234h-12c-5.523,0-10,4.477-10,10V336z"/><linearGradient id="SVGID_22_" x1="351.738" x2="290.997" y1="294.071" y2="354.812" gradientUnits="userSpaceOnUse"><stop offset="0" style="stop-color:#c4eafc"/><stop offset="1" style="stop-color:#fff"/></linearGradient><path fill="url(#SVGID_22_)" d="M330,280h-1.542c-1.509,0-2.892,0.844-3.581,2.187L289.52,351.04	c-0.694,1.352,0.288,2.96,1.808,2.96H330c1.105,0,2-0.895,2-2v-70C332,280.895,331.105,280,330,280z"/><linearGradient id="SVGID_23_" x1="407.498" x2="342.354" y1="281.498" y2="346.642" gradientUnits="userSpaceOnUse"><stop offset="0" style="stop-color:#c4eafc"/><stop offset=".633" style="stop-color:#edf8fe"/><stop offset="1" style="stop-color:#fff"/></linearGradient><path fill="url(#SVGID_23_)" d="M346,280h52c1.105,0,2,0.895,2,2v70c0,1.105-0.895,2-2,2h-52c-1.105,0-2-0.885-2-1.99	c0-10.514,0-59.52,0-70.025C344,280.881,344.896,280,346,280z"/><linearGradient id="SVGID_24_" x1="487.293" x2="418.543" y1="287.293" y2="356.044" gradientUnits="userSpaceOnUse"><stop offset="0" style="stop-color:#c4eafc"/><stop offset=".633" style="stop-color:#edf8fe"/><stop offset="1" style="stop-color:#fff"/></linearGradient><path fill="url(#SVGID_24_)" d="M501.17,354H414c-1.105,0-2-0.895-2-2v-70c0-1.105,0.895-2,2-2h61.166	c1.698,0,3.211,1.072,3.774,2.674l24.122,68.656C503.52,352.634,502.553,354,501.17,354z"/><linearGradient id="SVGID_25_" x1="349.667" x2="399.374" y1="334" y2="334" gradientUnits="userSpaceOnUse"><stop offset="0" style="stop-color:#e5e5e5"/><stop offset="1" style="stop-color:#cecece"/></linearGradient><path fill="url(#SVGID_25_)" d="M360,314c-4.418,0-8,3.582-8,8v4c0,4.418,3.582,8,8,8c-4.418,0-8,3.582-8,8v12h48v-20v-20H360z"/><linearGradient id="SVGID_26_" x1="454" x2="512.682" y1="334" y2="334" gradientUnits="userSpaceOnUse"><stop offset="0" style="stop-color:#e5e5e5"/><stop offset="1" style="stop-color:#cecece"/></linearGradient><path fill="url(#SVGID_26_)" d="M492,334h-4c-4.42,0-8-3.58-8-8v-4c0-4.42,3.58-8,8-8h-28c-4.42,0-8,3.58-8,8v4c0,4.42,3.58,8,8,8	c-4.418,0-8,3.582-8,8v12h48L492,334z"/><path fill="#F78B14" d="M400,362h-2v4H290v-4h-2v4h-4v2h4v32.281L307.44,432H400v-64h4v-2h-4V362z M398,430h-89.44L290,399.719V368	h108V430z"/><path fill="#F78B14" d="M506,366h-4v-4h-2v4h-86v-4h-2v4h-4v2h4v64h18.678l6.207-15.523c1.09-2.719,3.686-4.477,6.615-4.477H502v-44	h4V366z M500,410h-56.5c-3.752,0-7.078,2.25-8.471,5.734L429.322,430H414v-62h86V410z"/><linearGradient id="SVGID_27_" x1="470" x2="470" y1="171.25" y2="195.751" gradientTransform="matrix(-1 0 0 1 986 0)" gradientUnits="userSpaceOnUse"><stop offset="0" style="stop-color:#f9cdaf"/><stop offset=".536" style="stop-color:#f8caab"/><stop offset="1" style="stop-color:#f7c4a1"/></linearGradient><path fill="url(#SVGID_27_)" d="M516,172h12v12c0,6.627-5.373,12-12,12s-12-5.373-12-12S509.373,172,516,172z"/><linearGradient id="SVGID_28_" x1="541" x2="541" y1="438" y2="331.747" gradientUnits="userSpaceOnUse"><stop offset="0" style="stop-color:#2eabff"/><stop offset=".274" style="stop-color:#2fa6ff"/><stop offset=".604" style="stop-color:#3397ff"/><stop offset=".962" style="stop-color:#3a7fff"/><stop offset="1" style="stop-color:#3b7cff"/></linearGradient><rect width="38" height="106" x="522" y="330" fill="url(#SVGID_28_)"/><linearGradient id="SVGID_29_" x1="568" x2="568" y1="319.803" y2="456.186" gradientUnits="userSpaceOnUse"><stop offset="0" style="stop-color:#2ecaff"/><stop offset=".207" style="stop-color:#2fc6ff"/><stop offset=".421" style="stop-color:#30b9ff"/><stop offset=".639" style="stop-color:#33a5ff"/><stop offset=".858" style="stop-color:#3888ff"/><stop offset="1" style="stop-color:#3b71ff"/></linearGradient><path fill="url(#SVGID_29_)" d="M522,322v16c0,11.046,8.954,20,20,20h30c2.209,0,4,1.791,4,4v94h38v-98v-36H522z"/><linearGradient id="SVGID_30_" x1="615.667" x2="521.833" y1="327" y2="327" gradientUnits="userSpaceOnUse"><stop offset="0" style="stop-color:#00009a;stop-opacity:.15"/><stop offset=".238" style="stop-color:#0f0d9b;stop-opacity:.1142"/><stop offset=".71" style="stop-color:#27219c;stop-opacity:.0435"/><stop offset="1" style="stop-color:#30299c;stop-opacity:0"/></linearGradient><rect width="92" height="6" x="522" y="324" fill="url(#SVGID_30_)"/><path fill="#52BDFF" d="M618,454c0,1.105-0.895,2-2,2h-42c-1.105,0-2-0.895-2-2v-4c0-1.105,0.895-2,2-2h42c1.105,0,2,0.895,2,2V454z"/><linearGradient id="SVGID_31_" x1="672.914" x2="610.676" y1="243" y2="243" gradientUnits="userSpaceOnUse"><stop offset="0" style="stop-color:#fce08e"/><stop offset=".273" style="stop-color:#fcdf8a"/><stop offset=".556" style="stop-color:#fddc7d"/><stop offset=".842" style="stop-color:#fed769"/><stop offset="1" style="stop-color:#ffd45a"/></linearGradient><path fill="url(#SVGID_31_)" d="M666,252h-56v-18h44c6.627,0,12,5.373,12,12V252z"/><linearGradient id="SVGID_32_" x1="596" x2="596" y1="459" y2="484.403" gradientUnits="userSpaceOnUse"><stop offset="0" style="stop-color:#e5e5e5"/><stop offset="1" style="stop-color:#cecece"/></linearGradient><path fill="url(#SVGID_32_)" d="M610,466.156V460h-30v6.156c-4,2.064-8,7.053-8,12.889V484h48v-4.955	C620,473.209,616,468.22,610,466.156z"/><linearGradient id="SVGID_33_" x1="569.5" x2="622.521" y1="486" y2="486" gradientUnits="userSpaceOnUse"><stop offset="0" style="stop-color:#353535"/><stop offset="1" style="stop-color:#797979"/></linearGradient><rect width="52" height="4" x="570" y="484" fill="url(#SVGID_33_)"/><path fill="#E8F4F9" d="M560.006,436h-38.012c-1.101,0-1.994,0.893-1.994,1.994V460c0,2.209-1.791,4-4,4h-19.497	c-6.571,0-12.3,5.063-12.498,11.631C483.802,482.427,489.25,488,496,488h24h24h6c6.627,0,12-5.373,12-12v-38.006	C562,436.893,561.107,436,560.006,436z"/><linearGradient id="SVGID_34_" x1="488.551" x2="561.04" y1="462" y2="462" gradientUnits="userSpaceOnUse"><stop offset="0" style="stop-color:#ffffed"/><stop offset=".429" style="stop-color:#fcfcec"/><stop offset=".687" style="stop-color:#f4f4e8"/><stop offset=".899" style="stop-color:#e6e6e1"/><stop offset="1" style="stop-color:#dcdcdc"/></linearGradient><path fill="url(#SVGID_34_)" d="M560,436h-38c-1.1,0-2,0.9-2,2v22c0,2.2-1.8,4-4,4h-19.5c-6.56,0-12.5,5.06-12.5,11.64V476	c0,6.62,5.36,12,12,12h54c6.62,0,12-5.38,12-12v-38C562,436.9,561.1,436,560,436z"/><linearGradient id="SVGID_35_" x1="586" x2="606" y1="472" y2="472" gradientUnits="userSpaceOnUse"><stop offset="0" style="stop-color:#353535"/><stop offset="1" style="stop-color:#797979"/></linearGradient><path fill="url(#SVGID_35_)" d="M606,472c0,1.105-0.895,2-2,2h-16c-1.105,0-2-0.895-2-2l0,0c0-1.105,0.895-2,2-2h16	C605.105,470,606,470.895,606,472L606,472z"/><linearGradient id="SVGID_36_" x1="502" x2="522" y1="333" y2="333" gradientUnits="userSpaceOnUse"><stop offset="0" style="stop-color:#fce08e"/><stop offset=".282" style="stop-color:#fddc7b"/><stop offset=".727" style="stop-color:#fed663"/><stop offset="1" style="stop-color:#ffd45a"/></linearGradient><path fill="url(#SVGID_36_)" d="M522,336h-18c-1.105,0-2-0.895-2-2v-2c0-1.105,0.895-2,2-2h18V336z"/><linearGradient id="SVGID_37_" x1="513" x2="513" y1="336" y2="371.588" gradientUnits="userSpaceOnUse"><stop offset="0" style="stop-color:#f7c4a1"/><stop offset=".237" style="stop-color:#faccac"/><stop offset=".625" style="stop-color:#fed5b9"/><stop offset="1" style="stop-color:#ffd8bd"/></linearGradient><path fill="url(#SVGID_37_)" d="M504,336v32c0,2.209,1.791,4,4,4s4-1.791,4-4v-19c0-0.56,0.44-1,1-1s1,0.44,1,1v7	c0,2.209,1.791,4,4,4s4-1.791,4-4v-20H504z"/><linearGradient id="SVGID_38_" x1="689.829" x2="610.622" y1="258" y2="258" gradientUnits="userSpaceOnUse"><stop offset="0" style="stop-color:#d4836d"/><stop offset="1" style="stop-color:#be7a5c"/></linearGradient><path fill="url(#SVGID_38_)" d="M678,264h-66v-12h66c3.314,0,6,2.686,6,6l0,0C684,261.314,681.314,264,678,264z"/><linearGradient id="SVGID_39_" x1="568" x2="568" y1="233" y2="324.705" gradientUnits="userSpaceOnUse"><stop offset="0" style="stop-color:#ea8d58"/><stop offset=".232" style="stop-color:#eb8661"/><stop offset=".61" style="stop-color:#ef7379"/><stop offset="1" style="stop-color:#f45b99"/></linearGradient><path fill="url(#SVGID_39_)" d="M614,238v86h-92v-86c0-2.2,1.8-4,4-4h84C612.2,234,614,235.8,614,238z"/><circle cx="568" cy="274" r="4" opacity=".15"/><circle cx="568" cy="294" r="4" opacity=".15"/><linearGradient id="SVGID_40_" x1="556" x2="580" y1="234" y2="234" gradientUnits="userSpaceOnUse"><stop offset="0" style="stop-color:#f9d6bd"/><stop offset="1" style="stop-color:#f9ceb2"/></linearGradient><path fill="url(#SVGID_40_)" d="M568,246L568,246c-6.627,0-12-5.373-12-12v-12h24v12C580,240.627,574.627,246,568,246z"/><linearGradient id="SVGID_41_" x1="551" x2="585" y1="241" y2="241" gradientUnits="userSpaceOnUse"><stop offset="0" style="stop-color:#fce08e"/><stop offset=".273" style="stop-color:#fcdf8a"/><stop offset=".556" style="stop-color:#fddc7d"/><stop offset=".842" style="stop-color:#fed769"/><stop offset="1" style="stop-color:#ffd45a"/></linearGradient><path fill="url(#SVGID_41_)" d="M568,251c-9.373,0-17-7.626-17-17c0-1.657,1.344-3,3-3s3,1.343,3,3c0,6.065,4.936,11,11,11	s11-4.935,11-11c0-1.657,1.344-3,3-3s3,1.343,3,3C585,243.374,577.373,251,568,251z"/><linearGradient id="SVGID_42_" x1="556" x2="580" y1="227.2" y2="227.2" gradientUnits="userSpaceOnUse"><stop offset="0" style="stop-color:#302926;stop-opacity:0"/><stop offset="1" style="stop-color:#000;stop-opacity:.1"/></linearGradient><path fill="url(#SVGID_42_)" d="M580,224.4v4c-4,1.04-7.84,1.6-12,1.6s-8-0.56-12-1.6v-4c4,1.04,7.84,1.6,12,1.6	S576,225.44,580,224.4z"/><linearGradient id="SVGID_43_" x1="472" x2="472" y1="171.25" y2="195.751" gradientTransform="matrix(-1 0 0 1 988 0)" gradientUnits="userSpaceOnUse"><stop offset="0" style="stop-color:#f9cdaf"/><stop offset=".536" style="stop-color:#f8caab"/><stop offset="1" style="stop-color:#f7c4a1"/></linearGradient><path fill="url(#SVGID_43_)" d="M516,172h12v12c0,6.627-5.373,12-12,12s-12-5.373-12-12S509.373,172,516,172z"/><linearGradient id="SVGID_44_" x1="620" x2="620" y1="171.25" y2="195.751" gradientUnits="userSpaceOnUse"><stop offset="0" style="stop-color:#f9cdaf"/><stop offset=".536" style="stop-color:#f8caab"/><stop offset="1" style="stop-color:#f7c4a1"/></linearGradient><path fill="url(#SVGID_44_)" d="M620,172h-12v12c0,6.627,5.373,12,12,12s12-5.373,12-12S626.627,172,620,172z"/><linearGradient id="SVGID_45_" x1="620" x2="620" y1="177.5" y2="190.538" gradientUnits="userSpaceOnUse"><stop offset="0" style="stop-color:#efbc9a"/><stop offset=".715" style="stop-color:#f3c09e"/><stop offset="1" style="stop-color:#f7c4a1"/></linearGradient><path fill="url(#SVGID_45_)" d="M620,178h-6v6c0,3.314,2.686,6,6,6s6-2.686,6-6S623.314,178,620,178z"/><path d="M626,184c0,0.34-0.02,0.68-0.1,1c-0.46-2.84-2.92-5-5.9-5h-6v-2h6C623.32,178,626,180.68,626,184z" opacity=".05"/><linearGradient id="SVGID_46_" x1="470" x2="470" y1="177.5" y2="190.538" gradientTransform="matrix(-1 0 0 1 986 0)" gradientUnits="userSpaceOnUse"><stop offset="0" style="stop-color:#efbc9a"/><stop offset=".715" style="stop-color:#f3c09e"/><stop offset="1" style="stop-color:#f7c4a1"/></linearGradient><path fill="url(#SVGID_46_)" d="M516,178h6v6c0,3.314-2.686,6-6,6s-6-2.686-6-6S512.686,178,516,178z"/><path d="M510,184c0,0.34,0.02,0.68,0.1,1c0.46-2.84,2.92-5,5.9-5h6v-2h-6C512.68,178,510,180.68,510,184z" opacity=".05"/><linearGradient id="SVGID_47_" x1="522" x2="614" y1="191" y2="191" gradientUnits="userSpaceOnUse"><stop offset="0" style="stop-color:#ffdec7"/><stop offset="1" style="stop-color:#ffd8bd"/></linearGradient><path fill="url(#SVGID_47_)" d="M522,180c0,25.405,20.595,46,46,46s46-20.595,46-46v-24h-92V180z"/><circle cx="588" cy="180" r="8" fill="#FFF"/><circle cx="548" cy="180" r="8" fill="#FFF"/><linearGradient id="SVGID_48_" x1="588" x2="588" y1="175.875" y2="183.412" gradientUnits="userSpaceOnUse"><stop offset="0" style="stop-color:#4c4b4b"/><stop offset="1" style="stop-color:#3a3838"/></linearGradient><path fill="url(#SVGID_48_)" d="M592,180c0,2.2-1.8,4-4,4s-4-1.8-4-4c0-2.2,1.8-4,4-4c0.42,0,0.82,0.06,1.18,0.18	c-0.7,0.32-1.18,1.02-1.18,1.82c0,1.1,0.9,2,2,2c0.8,0,1.5-0.48,1.82-1.18C591.94,179.18,592,179.58,592,180z"/><linearGradient id="SVGID_49_" x1="548" x2="548" y1="175.875" y2="183.412" gradientUnits="userSpaceOnUse"><stop offset="0" style="stop-color:#4c4b4b"/><stop offset="1" style="stop-color:#3a3838"/></linearGradient><path fill="url(#SVGID_49_)" d="M552,180c0,2.2-1.8,4-4,4s-4-1.8-4-4c0-2.2,1.8-4,4-4c0.42,0,0.82,0.06,1.18,0.18	c-0.7,0.32-1.18,1.02-1.18,1.82c0,1.1,0.9,2,2,2c0.8,0,1.5-0.48,1.82-1.18C551.94,179.18,552,179.58,552,180z"/><linearGradient id="SVGID_50_" x1="-396.361" x2="-396.361" y1="304.005" y2="307.774" gradientTransform="matrix(0.9397 0.342 -0.342 0.9397 1067.1389 13.9543)" gradientUnits="userSpaceOnUse"><stop offset="0" style="stop-color:#af6e52"/><stop offset="1" style="stop-color:#a5765d"/></linearGradient><path fill="url(#SVGID_50_)" d="M596.322,166.173l-11.276-4.104c-1.038-0.378-2.186,0.157-2.563,1.195l0,0	c-0.378,1.038,0.157,2.186,1.195,2.563l11.276,4.104c1.038,0.378,2.186-0.157,2.563-1.195l0,0	C597.895,167.698,597.36,166.551,596.322,166.173z"/><linearGradient id="SVGID_51_" x1="1522.23" x2="1522.23" y1="361.464" y2="365.233" gradientTransform="matrix(0.9397 -0.342 0.342 0.9397 -1008.7614 345.0298)" gradientUnits="userSpaceOnUse"><stop offset="0" style="stop-color:#af6e52"/><stop offset="1" style="stop-color:#a5765d"/></linearGradient><path fill="url(#SVGID_51_)" d="M550.954,162.068l-11.276,4.104c-1.038,0.378-1.573,1.525-1.195,2.563l0,0	c0.378,1.038,1.525,1.573,2.563,1.195l11.276-4.104c1.038-0.378,1.573-1.525,1.195-2.563l0,0	C553.14,162.226,551.992,161.691,550.954,162.068z"/><linearGradient id="SVGID_52_" x1="568" x2="568" y1="181.844" y2="191.266" gradientUnits="userSpaceOnUse"><stop offset="0" style="stop-color:#f9cdaf"/><stop offset=".536" style="stop-color:#f8caab"/><stop offset="1" style="stop-color:#f7c4a1"/></linearGradient><path fill="url(#SVGID_52_)" d="M572,188c0,2.209-1.791,4-4,4l0,0c-2.209,0-4-1.791-4-4v-2c0-2.209,1.791-4,4-4l0,0	c2.209,0,4,1.791,4,4V188z"/><linearGradient id="SVGID_53_" x1="568" x2="568" y1="199.555" y2="212.671" gradientUnits="userSpaceOnUse"><stop offset="0" style="stop-color:#f9808f"/><stop offset=".391" style="stop-color:#f97792"/><stop offset="1" style="stop-color:#f96099"/></linearGradient><path fill="url(#SVGID_53_)" d="M579.96,210.96c0.04,0.56-0.44,1.04-1,1.04h-21.92c-0.56,0-1.04-0.48-1-1.04	c0.24-2.68,1.34-5.08,3.02-6.96c0.62-0.7,1.32-1.32,2.1-1.86c1.94-1.36,4.3-2.14,6.84-2.14s4.9,0.78,6.84,2.14	c0.78,0.54,1.48,1.16,2.1,1.86C578.62,205.88,579.72,208.28,579.96,210.96z"/><linearGradient id="SVGID_54_" x1="518" x2="618" y1="130" y2="130" gradientUnits="userSpaceOnUse"><stop offset="0" style="stop-color:#fafafa"/><stop offset=".295" style="stop-color:#f1f1f1"/><stop offset=".773" style="stop-color:#d9d9d9"/><stop offset="1" style="stop-color:#cbcbcb"/></linearGradient><path fill="url(#SVGID_54_)" d="M618,154v2H518v-2c0-4.86,0.7-9.56,2-14c1.94-6.68,5.24-12.8,9.6-18c9.16-11,22.96-18,38.4-18	s29.24,7,38.4,18c4.36,5.2,7.66,11.32,9.6,18C617.3,144.44,618,149.14,618,154z"/><linearGradient id="SVGID_55_" x1="531" x2="531" y1="180.5" y2="155.598" gradientUnits="userSpaceOnUse"><stop offset="0" style="stop-color:#af6e52"/><stop offset="1" style="stop-color:#a5765d"/></linearGradient><path fill="url(#SVGID_55_)" d="M530,156h-8v24h4c2.209,0,4-1.791,4-4v-12c0-1.105,0.895-2,2-2h2c3.314,0,6-2.686,6-6H530z"/><linearGradient id="SVGID_56_" x1="402" x2="402" y1="180.5" y2="155.598" gradientTransform="matrix(-1 0 0 1 1007 0)" gradientUnits="userSpaceOnUse"><stop offset="0" style="stop-color:#af6e52"/><stop offset="1" style="stop-color:#a5765d"/></linearGradient><path fill="url(#SVGID_56_)" d="M606,156h8v24h-4c-2.209,0-4-1.791-4-4v-12c0-1.105-0.895-2-2-2h-2c-3.314,0-6-2.686-6-6H606z"/><linearGradient id="SVGID_57_" x1="518" x2="618" y1="148" y2="148" gradientUnits="userSpaceOnUse"><stop offset="0" style="stop-color:#fafafa"/><stop offset="1" style="stop-color:#ebebeb"/></linearGradient><path fill="url(#SVGID_57_)" d="M618,154v2H518v-2c0-4.86,0.7-9.56,2-14h96C617.3,144.44,618,149.14,618,154z"/><linearGradient id="SVGID_58_" x1="520" x2="616" y1="131" y2="131" gradientUnits="userSpaceOnUse"><stop offset="0" style="stop-color:#f8f8f1"/><stop offset=".382" style="stop-color:#efefea"/><stop offset="1" style="stop-color:#d7d7d7"/></linearGradient><path fill="url(#SVGID_58_)" d="M616,140h-96c1.94-6.68,5.24-12.8,9.6-18h76.8C610.76,127.2,614.06,133.32,616,140z"/><linearGradient id="SVGID_59_" x1="520" x2="592" y1="131" y2="131" gradientUnits="userSpaceOnUse"><stop offset="0" style="stop-color:#f5f5f5"/><stop offset=".338" style="stop-color:#ececec"/><stop offset=".887" style="stop-color:#d4d4d4"/><stop offset="1" style="stop-color:#cecece"/></linearGradient><path fill="url(#SVGID_59_)" d="M592,140h-72c1.94-6.68,5.24-12.8,9.6-18L592,140z"/><linearGradient id="SVGID_60_" x1="657" x2="657" y1="262.333" y2="323.001" gradientUnits="userSpaceOnUse"><stop offset="0" style="stop-color:#fce08e"/><stop offset=".273" style="stop-color:#fcdf8a"/><stop offset=".556" style="stop-color:#fddc7d"/><stop offset=".842" style="stop-color:#fed769"/><stop offset="1" style="stop-color:#ffd45a"/></linearGradient><rect width="18" height="60" x="648" y="264" fill="url(#SVGID_60_)"/><linearGradient id="SVGID_61_" x1="646" x2="646" y1="484" y2="265.991" gradientUnits="userSpaceOnUse"><stop offset="0" style="stop-color:#e5e5e5"/><stop offset="1" style="stop-color:#cecece"/></linearGradient><path fill="url(#SVGID_61_)" d="M674,322h-26v-10.1l23.304-34.179c0.453-0.665,0.696-1.451,0.696-2.256v-9.424	c0-1.122-0.918-2.04-2.04-2.04H614v15.64l22,32.26V322h-6c-2.209,0-4,1.791-4,4c0,2.209,1.791,4,4,4h6v154h12V330h26	c2.209,0,4-1.791,4-4C678,323.791,676.209,322,674,322z M625.506,275.168c-0.911-1.337,0.046-3.168,1.664-3.168h29.661	c1.618,0,2.575,1.831,1.664,3.168l-14.83,21.762c-0.799,1.172-2.528,1.167-3.327-0.005L625.506,275.168z"/><linearGradient id="SVGID_62_" x1="634" x2="650" y1="486" y2="486" gradientUnits="userSpaceOnUse"><stop offset="0" style="stop-color:#353535"/><stop offset="1" style="stop-color:#797979"/></linearGradient><rect width="16" height="4" x="634" y="484" fill="url(#SVGID_62_)"/><linearGradient id="SVGID_63_" x1="662" x2="670" y1="326" y2="326" gradientUnits="userSpaceOnUse"><stop offset="0" style="stop-color:#f7c4a1"/><stop offset=".237" style="stop-color:#faccac"/><stop offset=".625" style="stop-color:#fed5b9"/><stop offset="1" style="stop-color:#ffd8bd"/></linearGradient><path fill="url(#SVGID_63_)" d="M670,322c0-2.209-1.791-4-4-4l0,0c-2.209,0-4,1.791-4,4v8c0,2.209,1.791,4,4,4l0,0	c2.209,0,4-1.791,4-4V322z"/><linearGradient id="SVGID_64_" x1="654" x2="662" y1="327" y2="327" gradientUnits="userSpaceOnUse"><stop offset="0" style="stop-color:#f7c4a1"/><stop offset=".237" style="stop-color:#faccac"/><stop offset=".625" style="stop-color:#fed5b9"/><stop offset="1" style="stop-color:#ffd8bd"/></linearGradient><path fill="url(#SVGID_64_)" d="M662,322c0-2.209-1.791-4-4-4l0,0c-2.209,0-4,1.791-4,4v10c0,2.209,1.791,4,4,4l0,0	c2.209,0,4-1.791,4-4V322z"/><linearGradient id="SVGID_65_" x1="646" x2="654" y1="326" y2="326" gradientUnits="userSpaceOnUse"><stop offset="0" style="stop-color:#f7c4a1"/><stop offset=".237" style="stop-color:#faccac"/><stop offset=".625" style="stop-color:#fed5b9"/><stop offset="1" style="stop-color:#ffd8bd"/></linearGradient><path fill="url(#SVGID_65_)" d="M654,322c0-2.209-1.791-4-4-4l0,0c-2.209,0-4,1.791-4,4v8c0,2.209,1.791,4,4,4l0,0	c2.209,0,4-1.791,4-4V322z"/><linearGradient id="SVGID_66_" x1="576" x2="614.937" y1="446" y2="446" gradientUnits="userSpaceOnUse"><stop offset="0" style="stop-color:#302926;stop-opacity:0"/><stop offset="1" style="stop-color:#000;stop-opacity:.1"/></linearGradient><rect width="38" height="4" x="576" y="444" fill="url(#SVGID_66_)"/><linearGradient id="SVGID_67_" x1="560.616" x2="522.068" y1="434" y2="434" gradientUnits="userSpaceOnUse"><stop offset="0" style="stop-color:#302926;stop-opacity:0"/><stop offset="1" style="stop-color:#000;stop-opacity:.1"/></linearGradient><rect width="38" height="4" x="522" y="432" fill="url(#SVGID_67_)"/><linearGradient id="SVGID_68_" x1="366" x2="386" y1="386" y2="386" gradientUnits="userSpaceOnUse"><stop offset="0" style="stop-color:#302926;stop-opacity:.1"/><stop offset=".178" style="stop-color:#392922;stop-opacity:.1"/><stop offset=".469" style="stop-color:#512a18;stop-opacity:.1"/><stop offset=".834" style="stop-color:#792c08;stop-opacity:.1"/><stop offset="1" style="stop-color:#8d2d00;stop-opacity:.1"/></linearGradient><path fill="url(#SVGID_68_)" d="M386,382c0-1.105-0.895-2-2-2h-16c-1.105,0-2,0.895-2,2v8c0,1.105,0.895,2,2,2h16	c1.105,0,2-0.895,2-2V382z"/><path d="M386,391c0,0.552-0.448,1-1,1l0,0c-0.552,0-1-0.448-1-1v-10c0-0.552,0.448-1,1-1l0,0c0.552,0,1,0.448,1,1	V391z" opacity=".05"/><linearGradient id="SVGID_69_" x1="254" x2="254" y1="438.333" y2="411.998" gradientUnits="userSpaceOnUse"><stop offset="0" style="stop-color:#302926;stop-opacity:0"/><stop offset=".29" style="stop-color:#27211f;stop-opacity:.058"/><stop offset=".762" style="stop-color:#0f0d0c;stop-opacity:.1523"/><stop offset="1" style="stop-color:#000;stop-opacity:.2"/></linearGradient><path fill="url(#SVGID_69_)" d="M296.03,446c0,0.62-0.035,1.24-0.075,1.84l-5.207-15.62c-1.64-4.92-6.227-8.22-11.408-8.22h-50.68	c-5.18,0-9.76,3.3-11.4,8.22l-5.2,15.62c-0.04-0.6-0.09-1.22-0.09-1.84c0-0.72,0.03-1.44,0.03-2.16v-0.02l5.23-15.6	c1.64-4.92,6.25-8.22,11.43-8.22h50.68c5.18,0,9.79,3.3,11.43,8.22l5.23,15.6v0.02C296,444.56,296.03,445.28,296.03,446z"/><linearGradient id="SVGID_70_" x1="478" x2="478" y1="438.333" y2="411.998" gradientUnits="userSpaceOnUse"><stop offset="0" style="stop-color:#302926;stop-opacity:0"/><stop offset=".29" style="stop-color:#27211f;stop-opacity:.058"/><stop offset=".762" style="stop-color:#0f0d0c;stop-opacity:.1523"/><stop offset="1" style="stop-color:#000;stop-opacity:.2"/></linearGradient><path fill="url(#SVGID_70_)" d="M520.03,446c0,0.62-0.035,1.24-0.075,1.84l-5.207-15.62c-1.64-4.92-6.227-8.22-11.408-8.22h-50.68	c-5.18,0-9.76,3.3-11.4,8.22l-5.2,15.62c-0.04-0.6-0.09-1.22-0.09-1.84c0-0.72,0.03-1.44,0.03-2.16v-0.02l5.23-15.6	c1.64-4.92,6.25-8.22,11.43-8.22h50.68c5.18,0,9.79,3.3,11.43,8.22l5.23,15.6v0.02C520,444.56,520.03,445.28,520.03,446z"/><path d="M272,448c0,9.94-8.06,18-18,18s-18-8.06-18-18c0-0.34,0-0.68,0.02-1c0.52,9.48,8.38,17,17.98,17	s17.46-7.52,17.98-17C272,447.32,272,447.66,272,448z" opacity=".1"/><path d="M496,448c0,9.94-8.06,18-18,18s-18-8.06-18-18c0-0.34,0-0.68,0.02-1c0.52,9.48,8.38,17,17.98,17	s17.46-7.52,17.98-17C496,447.32,496,447.66,496,448z" opacity=".1"/><linearGradient id="SVGID_71_" x1="521" x2="521" y1="443.667" y2="463.858" gradientUnits="userSpaceOnUse"><stop offset="0" style="stop-color:#302926;stop-opacity:0"/><stop offset="1" style="stop-color:#000;stop-opacity:.05"/></linearGradient><path fill="url(#SVGID_71_)" d="M524,460c0,2.2-1.8,4-4,4h-4c2.2,0,4-1.8,4-4v-22c0-1.1,0.9-2,2-2h4c-1.1,0-2,0.9-2,2V460L524,460z"/><path d="M360,314c-4.418,0-8,3.582-8,8v4c0,4.418,3.582,8,8,8c-4.418,0-8,3.582-8,8v12h48v-20v-20H360z" opacity=".1"/><path d="M492,334h-4c-4.42,0-8-3.58-8-8v-4c0-4.42,3.58-8,8-8h-28c-4.42,0-8,3.58-8,8v4c0,4.42,3.58,8,8,8	c-4.418,0-8,3.582-8,8v12h48L492,334z" opacity=".1"/><linearGradient id="SVGID_72_" x1="491.588" x2="491.588" y1="314" y2="354" gradientUnits="userSpaceOnUse"><stop offset="0" style="stop-color:#e5e5e5"/><stop offset="1" style="stop-color:#cecece"/></linearGradient><path fill="url(#SVGID_72_)" d="M503.06,351.34l-6.1-17.34l-7.02-20H488c-4.42,0-8,3.58-8,8v4c0,4.42,3.58,8,8,8c-4.42,0-8,3.58-8,8	v12h21.18C502.56,354,503.52,352.64,503.06,351.34z"/><linearGradient id="SVGID_73_" x1="390" x2="390" y1="312.667" y2="389.336" gradientUnits="userSpaceOnUse"><stop offset="0" style="stop-color:#e5e5e5"/><stop offset="1" style="stop-color:#cecece"/></linearGradient><path fill="url(#SVGID_73_)" d="M388,314c-4.418,0-8,3.582-8,8v4c0,4.418,3.582,8,8,8c-4.418,0-8,3.582-8,8v12h20v-20v-20H388z"/><linearGradient id="SVGID_74_" x1="513" x2="513" y1="325.75" y2="330.096" gradientUnits="userSpaceOnUse"><stop offset="0" style="stop-color:#7e3615;stop-opacity:0"/><stop offset="1" style="stop-color:#8f3900;stop-opacity:.08"/></linearGradient><rect width="18" height="4" x="504" y="326" fill="url(#SVGID_74_)"/><rect width="20" height="2" x="596" y="440" fill="#007CC1"/><path fill="#FFF" d="M311.302,214.344l1.59,5.134c0.241,0.779,0.851,1.389,1.631,1.631l5.134,1.59	c0.459,0.142,0.459,0.791,0,0.933l-5.134,1.59c-0.779,0.241-1.389,0.851-1.631,1.631l-1.59,5.134c-0.142,0.459-0.791,0.459-0.933,0	l-1.59-5.134c-0.241-0.779-0.851-1.389-1.631-1.631l-5.134-1.59c-0.459-0.142-0.459-0.791,0-0.933l5.134-1.59	c0.779-0.241,1.389-0.851,1.631-1.631l1.59-5.134C310.511,213.885,311.16,213.885,311.302,214.344z"/><path fill="#FFF" d="M237.302,256.344l1.59,5.134c0.241,0.779,0.851,1.389,1.631,1.631l5.134,1.59	c0.459,0.142,0.459,0.791,0,0.933l-5.134,1.59c-0.779,0.241-1.389,0.851-1.631,1.631l-1.59,5.134c-0.142,0.459-0.791,0.459-0.933,0	l-1.59-5.134c-0.241-0.779-0.851-1.389-1.631-1.631l-5.134-1.59c-0.459-0.142-0.459-0.791,0-0.933l5.134-1.59	c0.779-0.241,1.389-0.851,1.631-1.631l1.59-5.134C236.511,255.885,237.16,255.885,237.302,256.344z"/><path fill="#FFF" d="M247.302,200.343l1.59,5.134c0.241,0.779,0.851,1.389,1.631,1.631l5.134,1.59	c0.459,0.142,0.459,0.791,0,0.933l-5.134,1.59c-0.779,0.241-1.389,0.851-1.631,1.631l-1.59,5.134c-0.142,0.459-0.791,0.459-0.933,0	l-1.59-5.134c-0.241-0.779-0.851-1.389-1.631-1.631l-5.134-1.59c-0.459-0.142-0.459-0.791,0-0.933l5.134-1.59	c0.779-0.241,1.389-0.851,1.631-1.631l1.59-5.134C246.511,199.884,247.16,199.884,247.302,200.343z"/><linearGradient id="SVGID_75_" x1="618.417" x2="613.997" y1="258" y2="258" gradientUnits="userSpaceOnUse"><stop offset="0" style="stop-color:#7e3615;stop-opacity:0"/><stop offset="1" style="stop-color:#593900;stop-opacity:.1"/></linearGradient><rect width="4" height="12" x="614" y="252" fill="url(#SVGID_75_)"/><linearGradient id="SVGID_76_" x1="254" x2="254" y1="454.167" y2="437.38" gradientUnits="userSpaceOnUse"><stop offset="0" style="stop-color:#302926;stop-opacity:0"/><stop offset=".284" style="stop-color:#2c2523;stop-opacity:.0427"/><stop offset=".579" style="stop-color:#1f1b19;stop-opacity:.0868"/><stop offset=".877" style="stop-color:#0b0909;stop-opacity:.1316"/><stop offset="1" style="stop-color:#000;stop-opacity:.15"/></linearGradient><circle cx="254" cy="446" r="8" fill="url(#SVGID_76_)"/><linearGradient id="SVGID_77_" x1="478" x2="478" y1="454.167" y2="437.38" gradientUnits="userSpaceOnUse"><stop offset="0" style="stop-color:#302926;stop-opacity:0"/><stop offset=".284" style="stop-color:#2c2523;stop-opacity:.0427"/><stop offset=".579" style="stop-color:#1f1b19;stop-opacity:.0868"/><stop offset=".877" style="stop-color:#0b0909;stop-opacity:.1316"/><stop offset="1" style="stop-color:#000;stop-opacity:.15"/></linearGradient><circle cx="478" cy="446" r="8" fill="url(#SVGID_77_)"/><linearGradient id="SVGID_78_" x1="372.014" x2="448.874" y1="184.655" y2="184.655" gradientUnits="userSpaceOnUse"><stop offset="0" style="stop-color:#ffe552"/><stop offset="1" style="stop-color:#ff9617"/></linearGradient><path fill="url(#SVGID_78_)" d="M398,171.895c0-1.144-0.869-2.056-1.998-1.871c-6.714,1.104-12.586,7.234-12.586,14.631	s5.835,13.527,12.549,14.631c1.128,0.185,2.035-0.727,2.035-1.871V171.895z"/><linearGradient id="SVGID_79_" x1="368.414" x2="446.454" y1="221.179" y2="221.179" gradientUnits="userSpaceOnUse"><stop offset="0" style="stop-color:#ffe552"/><stop offset="1" style="stop-color:#ff9617"/></linearGradient><path fill="url(#SVGID_79_)" d="M445.683,230.158c0,21.593-18.098,38.97-39.949,37.785c-19.863-1.077-35.76-17.941-35.735-37.833	c0.013-10.215,4.074-19.475,10.661-26.276l0.033-0.049c2.77,4.18,7.687,6.868,13.126,6.614c7.99-0.372,14.18-7.336,14.18-15.334	v-18.821c0-1.555,1.693-2.432,2.943-1.507C430.84,189.463,445.683,210.258,445.683,230.158z"/><linearGradient id="SVGID_80_" x1="426.842" x2="426.842" y1="249.154" y2="177.538" gradientUnits="userSpaceOnUse"><stop offset="0" style="stop-color:#ff3b2a;stop-opacity:0"/><stop offset="1" style="stop-color:#d43200;stop-opacity:.2"/></linearGradient><path fill="url(#SVGID_80_)" d="M445.683,230.157c0,11.892-5.484,22.522-14.078,29.419c5.277-6.502,8.429-14.757,8.429-23.765	c0-18.959-14.034-38.728-32.034-53.297v-6.276c0-1.093,0.881-1.847,1.842-1.885c0.057,0,0.13,0.019,0.186,0.019	c0.283,0.037,0.564,0.15,0.828,0.358C430.758,189.468,445.683,210.255,445.683,230.157z"/><path fill="#FFF" d="M576.94,204h-17.88c0.62,0,1.32-1.32,2.1-1.86c1.94-1.36,4.3-2.14,6.84-2.14s4.9,0.78,6.84,2.14	C575.62,202.68,576.32,204,576.94,204z"/><linearGradient id="SVGID_81_" x1="568" x2="568" y1="208.818" y2="212.123" gradientUnits="userSpaceOnUse"><stop offset="0" style="stop-color:#ea5770"/><stop offset=".552" style="stop-color:#ea4f79"/><stop offset="1" style="stop-color:#ea4684"/></linearGradient><path fill="url(#SVGID_81_)" d="M573.64,212h-11.28c0.8-2,3.02-2.938,5.64-2.938S572.84,210,573.64,212z"/></svg>